<svg id="redes" xmlns="http://www.w3.org/2000/svg" width="64.918" height="64.918" viewBox="0 0 64.918 64.918">
  <path id="Trazado_7840" data-name="Trazado 7840" d="M20.172,32.344A12.172,12.172,0,1,1,32.344,20.172,12.187,12.187,0,0,1,20.172,32.344Zm0-21.639a9.467,9.467,0,1,0,9.467,9.467A9.478,9.478,0,0,0,20.172,10.7Z" transform="translate(13.639 13.639)" fill="#fff"/>
  <path id="Trazado_7841" data-name="Trazado 7841" d="M8.115,34.23a8.115,8.115,0,1,1,8.115-8.115A8.125,8.125,0,0,1,8.115,34.23Zm0-13.525a5.41,5.41,0,1,0,5.41,5.41A5.415,5.415,0,0,0,8.115,20.7Z" transform="translate(0 30.689)" fill="#fff"/>
  <path id="Trazado_7842" data-name="Trazado 7842" d="M9.41,10.82a5.41,5.41,0,1,1,5.41-5.41A5.415,5.415,0,0,1,9.41,10.82Zm0-8.115a2.7,2.7,0,1,0,2.7,2.7A2.708,2.708,0,0,0,9.41,2.7Z" transform="translate(6.82)" fill="#fff"/>
  <path id="Trazado_7843" data-name="Trazado 7843" d="M24.762,31.525a6.762,6.762,0,1,1,6.762-6.762A6.77,6.77,0,0,1,24.762,31.525Zm0-10.82a4.057,4.057,0,1,0,4.057,4.057A4.062,4.062,0,0,0,24.762,20.7Z" transform="translate(30.689 30.689)" fill="#fff"/>
  <path id="Trazado_7844" data-name="Trazado 7844" d="M19.057,9.115a4.057,4.057,0,1,1,4.057-4.057A4.062,4.062,0,0,1,19.057,9.115Zm0-5.41A1.352,1.352,0,1,0,20.41,5.057,1.355,1.355,0,0,0,19.057,3.7Z" transform="translate(25.574 1.705)" fill="#fff"/>
  <path id="Trazado_7845" data-name="Trazado 7845" d="M25.41,19.82a5.41,5.41,0,1,1,5.41-5.41A5.415,5.415,0,0,1,25.41,19.82Zm0-8.115a2.7,2.7,0,1,0,2.7,2.7A2.708,2.708,0,0,0,25.41,11.7Z" transform="translate(34.099 15.344)" fill="#fff"/>
  <path id="Trazado_7846" data-name="Trazado 7846" d="M4.057,18.115a4.057,4.057,0,1,1,4.057-4.057A4.062,4.062,0,0,1,4.057,18.115Zm0-5.41A1.352,1.352,0,1,0,5.41,14.057,1.355,1.355,0,0,0,4.057,12.7Z" transform="translate(0 17.049)" fill="#fff"/>
  <path id="Trazado_7847" data-name="Trazado 7847" d="M0,0H16.649V2.7H0Z" transform="matrix(0.216, -0.976, 0.976, 0.216, 54.395, 49.78)" fill="#fff"/>
  <path id="Trazado_7848" data-name="Trazado 7848" d="M0,0H35.207V2.7H0Z" transform="translate(14.824 55.672) rotate(-2.808)" fill="#fff"/>
  <path id="Trazado_7849" data-name="Trazado 7849" d="M0,0H21.7V2.7H0Z" transform="translate(3.998 28.102) rotate(-64.665)" fill="#fff"/>
  <path id="Trazado_7850" data-name="Trazado 7850" d="M0,0H2.7V16.871H0Z" transform="translate(3.625 33.696) rotate(-2.751)" fill="#fff"/>
  <path id="Trazado_7851" data-name="Trazado 7851" d="M0,0H2.708V20.655H0Z" transform="matrix(0.839, -0.544, 0.544, 0.839, 44.938, 9.742)" fill="#fff"/>
  <path id="Trazado_7852" data-name="Trazado 7852" d="M0,0H2.7V21.691H0Z" transform="translate(20.183 6.948) rotate(-87.306)" fill="#fff"/>
  <path id="Trazado_7853" data-name="Trazado 7853" d="M0,0H2.7V14.382H0Z" transform="translate(40.5 42.423) rotate(-45)" fill="#fff"/>
  <path id="Trazado_7854" data-name="Trazado 7854" d="M0,0H2.7V18.548H0Z" transform="translate(17.215 9.544) rotate(-31.799)" fill="#fff"/>
  <path id="Trazado_7855" data-name="Trazado 7855" d="M0,0H17.176V2.7H0Z" transform="translate(11.798 50.635) rotate(-34.898)" fill="#fff"/>
  <path id="Trazado_7856" data-name="Trazado 7856" d="M0,0H15.621V2.7H0Z" transform="translate(36.551 23.273) rotate(-68.156)" fill="#fff"/>
  <path id="Trazado_7857" data-name="Trazado 7857" d="M0,0H11.147V2.7H0Z" transform="translate(44.259 30.799) rotate(-9.095)" fill="#fff"/>
  <path id="Trazado_7858" data-name="Trazado 7858" d="M0,0H2.7V16.376H0Z" transform="translate(6.619 32.698) rotate(-84.78)" fill="#fff"/>
</svg>
