<svg xmlns="http://www.w3.org/2000/svg" width="59.151" height="60.154" viewBox="0 0 59.151 60.154">
  <g id="datos_1_" data-name="datos (1)" transform="translate(-4)">
    <g id="Grupo_3172" data-name="Grupo 3172" transform="translate(4)">
      <g id="Grupo_3171" data-name="Grupo 3171">
        <path id="Trazado_7834" data-name="Trazado 7834" d="M49.116,0H9.013A5.019,5.019,0,0,0,4,5.013V37.095a5.013,5.013,0,0,0,3.761,4.854l.5-1.941a3.008,3.008,0,0,1-2.257-2.913V5.013A3.008,3.008,0,0,1,9.013,2.005h40.1a3.008,3.008,0,0,1,3.008,3.008v1h2.005v-1A5.019,5.019,0,0,0,49.116,0Z" transform="translate(-4)" fill="#fff"/>
      </g>
    </g>
    <g id="Grupo_3174" data-name="Grupo 3174" transform="translate(7.86 3.97)">
      <g id="Grupo_3173" data-name="Grupo 3173" transform="translate(0 0)">
        <rect id="Rectángulo_274" data-name="Rectángulo 274" width="2.144" height="2.144" fill="#fff"/>
      </g>
    </g>
    <g id="Grupo_3176" data-name="Grupo 3176" transform="translate(12.149 3.97)">
      <g id="Grupo_3175" data-name="Grupo 3175" transform="translate(0 0)">
        <rect id="Rectángulo_275" data-name="Rectángulo 275" width="1.716" height="2.144" fill="#fff"/>
      </g>
    </g>
    <g id="Grupo_3178" data-name="Grupo 3178" transform="translate(16.009 3.97)">
      <g id="Grupo_3177" data-name="Grupo 3177" transform="translate(0 0)">
        <rect id="Rectángulo_276" data-name="Rectángulo 276" width="2.144" height="2.144" fill="#fff"/>
      </g>
    </g>
    <g id="Grupo_3180" data-name="Grupo 3180" transform="translate(14.026 16.041)">
      <g id="Grupo_3179" data-name="Grupo 3179">
        <path id="Trazado_7835" data-name="Trazado 7835" d="M132.832,167.394l-9.509-9.509a13.867,13.867,0,0,0,1.191-2.815h1.594v-2.005h-1.163a13.508,13.508,0,0,0-.842-7.184v-9.859H122.1V142.4a14.113,14.113,0,0,0-2.005-2.081V132.01h-2.005v6.912a13.943,13.943,0,0,0-2.005-.957V128h-2.005v9.356a13.88,13.88,0,0,0-2.005-.282v-7.069h-2.005v7.069a13.88,13.88,0,0,0-2.005.282v-3.341h-2.005v3.949a13.95,13.95,0,0,0-2.005.957v-5.909h-2.005v7.311a14.112,14.112,0,0,0-2.005,2.081v-7.387H98.036V145.88a13.509,13.509,0,0,0-.842,7.184H84v2.005H97.625a14.007,14.007,0,0,0,21.5,7.467l9.283,9.283a1,1,0,0,0,1.418,0l3.008-3.008A1,1,0,0,0,132.832,167.394Zm-21.763-4.3A12.031,12.031,0,1,1,123.1,151.059,12.044,12.044,0,0,1,111.069,163.09Zm18.046,6.6-8.434-8.434a14.205,14.205,0,0,0,1.509-1.671l8.515,8.515Z" transform="translate(-84 -128)" fill="#fff"/>
      </g>
    </g>
    <g id="Grupo_3182" data-name="Grupo 3182" transform="translate(31.069 29.074)">
      <g id="Grupo_3181" data-name="Grupo 3181">
        <path id="Trazado_7836" data-name="Trazado 7836" d="M230.026,232a10.026,10.026,0,1,0,10.026,10.026A10.026,10.026,0,0,0,230.026,232Zm0,18.046a8.021,8.021,0,0,1-6.936-4.01h13.872A8.021,8.021,0,0,1,230.026,250.046Zm-7.757-6.015a7.947,7.947,0,0,1,2.744-8.256v6.251h2.005V234.6a7.984,7.984,0,0,1,2.005-.521v7.951h2.005v-7.951a7.984,7.984,0,0,1,2.005.521v7.43h2.005v-6.251a7.947,7.947,0,0,1,2.744,8.256Z" transform="translate(-220 -232)" fill="#fff"/>
      </g>
    </g>
    <g id="Grupo_3184" data-name="Grupo 3184" transform="translate(10.015 8.021)">
      <g id="Grupo_3183" data-name="Grupo 3183">
        <path id="Trazado_7837" data-name="Trazado 7837" d="M97.116,64h-40.1A5.019,5.019,0,0,0,52,69.013v32.082a5.019,5.019,0,0,0,5.013,5.013H70.046V104.1H57.013a3.008,3.008,0,0,1-3.008-3.008V69.013a3.008,3.008,0,0,1,3.008-3.008h40.1a3.008,3.008,0,0,1,3.008,3.008v32.082a3.008,3.008,0,0,1-.752,1.989l1.5,1.326a5.007,5.007,0,0,0,1.253-3.315V69.013A5.019,5.019,0,0,0,97.116,64Z" transform="translate(-52 -64)" fill="#fff"/>
      </g>
    </g>
    <g id="Grupo_3186" data-name="Grupo 3186" transform="translate(13.864 12.119)">
      <g id="Grupo_3185" data-name="Grupo 3185" transform="translate(0 0)">
        <rect id="Rectángulo_277" data-name="Rectángulo 277" width="2.144" height="1.716" fill="#fff"/>
      </g>
    </g>
    <g id="Grupo_3188" data-name="Grupo 3188" transform="translate(18.153 12.119)">
      <g id="Grupo_3187" data-name="Grupo 3187" transform="translate(0 0)">
        <rect id="Rectángulo_278" data-name="Rectángulo 278" width="1.716" height="1.716" fill="#fff"/>
      </g>
    </g>
    <g id="Grupo_3190" data-name="Grupo 3190" transform="translate(22.013 12.119)">
      <g id="Grupo_3189" data-name="Grupo 3189" transform="translate(0 0)">
        <rect id="Rectángulo_279" data-name="Rectángulo 279" width="2.144" height="1.716" fill="#fff"/>
      </g>
    </g>
    <g id="Grupo_3192" data-name="Grupo 3192" transform="translate(16.009 33.135)">
      <g id="Grupo_3191" data-name="Grupo 3191" transform="translate(0)">
        <rect id="Rectángulo_280" data-name="Rectángulo 280" width="2.144" height="6.004" fill="#fff"/>
      </g>
    </g>
    <g id="Grupo_3194" data-name="Grupo 3194" transform="translate(19.869 27.13)">
      <g id="Grupo_3193" data-name="Grupo 3193" transform="translate(0 0)">
        <rect id="Rectángulo_281" data-name="Rectángulo 281" width="2.144" height="12.009" fill="#fff"/>
      </g>
    </g>
    <g id="Grupo_3196" data-name="Grupo 3196" transform="translate(24.158 30.132)">
      <g id="Grupo_3195" data-name="Grupo 3195" transform="translate(0 0)">
        <rect id="Rectángulo_282" data-name="Rectángulo 282" width="1.716" height="9.007" fill="#fff"/>
      </g>
    </g>
  </g>
</svg>
