<svg id="control-de-calidad" xmlns="http://www.w3.org/2000/svg" width="73.779" height="73.773" viewBox="0 0 73.779 73.773">
  <path id="Trazado_7715" data-name="Trazado 7715" d="M179.04,180.07a.922.922,0,0,1-.654-.271l-19.5-19.5a.926.926,0,1,1,1.309-1.309l19.5,19.5a.926.926,0,0,1-.655,1.58Z" transform="translate(-110.343 -110.413)" fill="#40b2df"/>
  <path id="Trazado_7716" data-name="Trazado 7716" d="M69.292,91.583A22.292,22.292,0,1,1,91.583,69.292,22.292,22.292,0,0,1,69.292,91.583Zm0-42.732a20.44,20.44,0,1,0,20.44,20.44,20.44,20.44,0,0,0-20.44-20.44Z" transform="translate(-40.061 -40.065)" fill="#40b2df"/>
  <g id="Grupo_3086" data-name="Grupo 3086" transform="translate(0 0)">
    <path id="Trazado_7717" data-name="Trazado 7717" d="M100.54,93.318,81.381,74.159a29.186,29.186,0,1,0-7.227,7.229l19.159,19.159a5.111,5.111,0,1,0,7.229-7.228ZM30.2,57.5A27.291,27.291,0,1,1,57.491,84.789,27.291,27.291,0,0,1,30.2,57.5ZM99.231,99.238a3.265,3.265,0,0,1-4.611,0L75.65,80.267a29.35,29.35,0,0,0,4.611-4.611l18.971,18.97a3.265,3.265,0,0,1,0,4.611Z" transform="translate(-28.26 -28.271)" fill="#40b2df"/>
    <path id="Trazado_7718" data-name="Trazado 7718" d="M107.754,77.376h-6.216a.923.923,0,0,0-.914.81c-1.544-1.363-3.884-3.459-5.171-4.762s-1.763-3.572-1.921-5.23a2.433,2.433,0,0,0-1.564-2.054,2.692,2.692,0,0,0-2.733.694c-.109.173-2.608,4.3-.714,8.584a.926.926,0,0,0,1.694-.749c-1.335-3.018.374-6.526.481-6.656a.647.647,0,0,1,.611-.143.582.582,0,0,1,.381.5c.187,1.957.764,4.649,2.447,6.354,1.78,1.8,5.378,4.958,6.477,5.915v9.934a.926.926,0,0,0,.926.926h6.216a.926.926,0,0,0,.926-.926V78.3a.926.926,0,0,0-.926-.926Zm-.926,12.271h-4.364V79.228h4.364Z" transform="translate(-65.761 -52.04)" fill="#40b2df"/>
    <path id="Trazado_7719" data-name="Trazado 7719" d="M87.8,105.569l-7.27,1.458H72.568a.481.481,0,0,1-.481-.481v-10.6a.481.481,0,0,1,.481-.481h6.645a.481.481,0,0,1,.481.481v8.525a.926.926,0,1,0,1.851,0V95.947a2.333,2.333,0,0,0-2.333-2.333H72.568a2.333,2.333,0,0,0-2.333,2.333v10.6a2.333,2.333,0,0,0,2.333,2.333h8.051a.949.949,0,0,0,.183-.018l7.36-1.476a.926.926,0,1,0-.365-1.814Z" transform="translate(-54.692 -69.418)" fill="#40b2df"/>
  </g>
</svg>
