<svg id="relacion" xmlns="http://www.w3.org/2000/svg" width="73.125" height="73.125" viewBox="0 0 73.125 73.125">
  <path id="Trazado_7710" data-name="Trazado 7710" d="M28.812,27.594V22.719a8.536,8.536,0,0,0-8-8.5,7.312,7.312,0,1,0-10.82,0,8.536,8.536,0,0,0-8,8.5v4.875a1.218,1.218,0,0,0,1.219,1.219H27.594A1.218,1.218,0,0,0,28.812,27.594ZM15.406,4.437a4.875,4.875,0,1,1-4.875,4.875A4.88,4.88,0,0,1,15.406,4.437ZM26.375,26.375H4.437V22.719a6.1,6.1,0,0,1,6.094-6.094h9.75a6.1,6.1,0,0,1,6.094,6.094Z" transform="translate(-2 -2)" fill="#40b2df"/>
  <path id="Trazado_7711" data-name="Trazado 7711" d="M58.816,52.214a7.312,7.312,0,1,0-10.82,0,8.536,8.536,0,0,0-8,8.5v4.875a1.218,1.218,0,0,0,1.219,1.219H65.594a1.218,1.218,0,0,0,1.219-1.219V60.719A8.536,8.536,0,0,0,58.816,52.214Zm-5.41-9.777a4.875,4.875,0,1,1-4.875,4.875A4.88,4.88,0,0,1,53.406,42.437ZM64.375,64.375H42.437V60.719a6.1,6.1,0,0,1,6.094-6.094h9.75a6.1,6.1,0,0,1,6.094,6.094Z" transform="translate(6.312 6.312)" fill="#40b2df"/>
  <path id="Trazado_7712" data-name="Trazado 7712" d="M38.363,28a5.023,5.023,0,0,0-3.646,1.566l-.968,1.005-.968-1.005a5.03,5.03,0,0,0-7.294,0,5.419,5.419,0,0,0,0,7.447l7.384,7.676a1.217,1.217,0,0,0,1.756,0l7.384-7.676a5.419,5.419,0,0,0,0-7.447A5.028,5.028,0,0,0,38.363,28Zm1.891,7.323-6.506,6.763-6.506-6.763a2.959,2.959,0,0,1,0-4.067,2.592,2.592,0,0,1,3.782,0l1.846,1.918a1.253,1.253,0,0,0,1.756,0l1.846-1.918a2.65,2.65,0,0,1,3.782,0,2.96,2.96,0,0,1,0,4.067Z" transform="translate(2.814 3.687)" fill="#40b2df"/>
  <path id="Trazado_7713" data-name="Trazado 7713" d="M33.232,11.293l-4.875,4.875a1.217,1.217,0,0,0,0,1.723l4.875,4.875,1.723-1.723-2.795-2.795H54.812V41.4H57.25V17.03a1.218,1.218,0,0,0-1.219-1.219H32.161l2.795-2.795Z" transform="translate(3.687 0.033)" fill="#40b2df"/>
  <path id="Trazado_7714" data-name="Trazado 7714" d="M36.018,53.951l-1.723,1.723,2.795,2.795H14.437V28H12V59.687a1.218,1.218,0,0,0,1.219,1.219h23.87L34.294,63.7l1.723,1.723,4.875-4.875a1.217,1.217,0,0,0,0-1.723Z" transform="translate(0.187 3.687)" fill="#40b2df"/>
</svg>
