<svg xmlns="http://www.w3.org/2000/svg" width="56.523" height="65.589" viewBox="0 0 56.523 65.589">
  <g id="Icons" transform="translate(0.5 0.5)">
    <g id="Grupo_3089" data-name="Grupo 3089" transform="translate(0 0)">
      <path id="Trazado_7720" data-name="Trazado 7720" d="M57.958,22.2V5.2a1.7,1.7,0,0,0-1.7-1.7H13.2a1.7,1.7,0,0,0-1.7,1.7V17.664h1.133V5.2a.567.567,0,0,1,.567-.567H56.259a.568.568,0,0,1,.567.567v17Z" transform="translate(-6.967 -3.5)" fill="#40b2df" stroke="#40b2df" stroke-width="1"/>
      <path id="Trazado_7721" data-name="Trazado 7721" d="M9.2,59.426h7.932V58.293H9.2a.567.567,0,0,1-.567-.567V19.2a.567.567,0,0,1,.567-.567H20.962a.569.569,0,0,1,.513.308l1.632,3.288a1.7,1.7,0,0,0,1.526.936H61.324a.568.568,0,0,1,.567.567V57.726a.567.567,0,0,1-.567.567H53.392v1.133h7.932a1.7,1.7,0,0,0,1.7-1.7V23.732a1.7,1.7,0,0,0-1.7-1.7H24.633a.569.569,0,0,1-.513-.308l-1.632-3.288a1.7,1.7,0,0,0-1.526-.936H9.2a1.7,1.7,0,0,0-1.7,1.7V57.726a1.7,1.7,0,0,0,1.7,1.7Z" transform="translate(-7.5 -1.636)" fill="#40b2df" stroke="#40b2df" stroke-width="1"/>
      <path id="Trazado_7722" data-name="Trazado 7722" d="M33.93,25.5a11.911,11.911,0,0,0-11.9,11.9v3.966h-1.7A2.837,2.837,0,0,0,17.5,44.2v18.13a2.837,2.837,0,0,0,2.833,2.833h27.2a2.836,2.836,0,0,0,2.833-2.833V44.2a2.836,2.836,0,0,0-2.833-2.833h-1.7V37.4A11.911,11.911,0,0,0,33.93,25.5ZM23.166,37.4a10.765,10.765,0,1,1,21.53,0v3.966H41.3V37.4a7.365,7.365,0,1,0-14.731,0v3.966h-3.4ZM27.7,41.364V37.4a6.232,6.232,0,1,1,12.464,0v3.966ZM49.228,44.2v18.13a1.7,1.7,0,0,1-1.7,1.7h-27.2a1.7,1.7,0,0,1-1.7-1.7V44.2a1.7,1.7,0,0,1,1.7-1.7h27.2A1.7,1.7,0,0,1,49.228,44.2Z" transform="translate(-6.169 -0.571)" fill="#40b2df" stroke="#40b2df" stroke-width="1"/>
      <path id="Trazado_7723" data-name="Trazado 7723" d="M32.523,43.5a4.442,4.442,0,0,0-2.51,8.113v4.109a2.509,2.509,0,1,0,5.018,0V51.613A4.441,4.441,0,0,0,32.523,43.5Zm1.654,7.314a.568.568,0,0,0-.279.488v4.419a1.376,1.376,0,1,1-2.751,0V51.3a.567.567,0,0,0-.28-.488,3.32,3.32,0,1,1,3.31,0Z" transform="translate(-4.761 1.825)" fill="#40b2df" stroke="#40b2df" stroke-width="1"/>
      <path id="Trazado_7724" data-name="Trazado 7724" d="M36,9.5H49.6v1.133H36Z" transform="translate(-3.706 -2.701)" fill="#40b2df" stroke="#40b2df" stroke-width="1"/>
      <path id="Trazado_7725" data-name="Trazado 7725" d="M16,13.5H52.26v1.133H16Z" transform="translate(-6.368 -2.169)" fill="#40b2df" stroke="#40b2df" stroke-width="1"/>
      <path id="Trazado_7726" data-name="Trazado 7726" d="M24,17.5H51.2v1.133H24Z" transform="translate(-5.303 -1.636)" fill="#40b2df" stroke="#40b2df" stroke-width="1"/>
    </g>
  </g>
</svg>
