<svg id="instagram_1_" data-name="instagram (1)" xmlns="http://www.w3.org/2000/svg" width="27.162" height="27.162" viewBox="0 0 27.162 27.162">
  <path id="Trazado_7652" data-name="Trazado 7652" d="M212.2,209.6a2.6,2.6,0,1,1-2.6-2.6A2.6,2.6,0,0,1,212.2,209.6Zm0,0" transform="translate(-196.018 -196.018)" fill="#40B2DF"/>
  <path id="Trazado_7653" data-name="Trazado 7653" d="M147.958,137.283a2.582,2.582,0,0,0-1.48-1.48,4.314,4.314,0,0,0-1.448-.268c-.823-.038-1.069-.046-3.151-.046s-2.329.008-3.151.045a4.317,4.317,0,0,0-1.448.269,2.583,2.583,0,0,0-1.48,1.48,4.316,4.316,0,0,0-.268,1.448c-.038.822-.046,1.069-.046,3.151s.008,2.329.046,3.151a4.314,4.314,0,0,0,.268,1.448,2.583,2.583,0,0,0,1.48,1.48,4.311,4.311,0,0,0,1.448.269c.822.038,1.069.045,3.151.045s2.329-.008,3.151-.045a4.311,4.311,0,0,0,1.448-.269,2.582,2.582,0,0,0,1.48-1.48,4.318,4.318,0,0,0,.269-1.448c.037-.823.045-1.069.045-3.151s-.008-2.329-.045-3.151A4.309,4.309,0,0,0,147.958,137.283Zm-6.079,8.6a4,4,0,1,1,4-4A4,4,0,0,1,141.878,145.887Zm4.163-7.232a.936.936,0,1,1,.936-.936A.936.936,0,0,1,146.041,138.655Zm0,0" transform="translate(-128.297 -128.301)" fill="#40B2DF"/>
  <path id="Trazado_7654" data-name="Trazado 7654" d="M13.581,0A13.581,13.581,0,1,0,27.162,13.581,13.583,13.583,0,0,0,13.581,0Zm7.752,16.8a5.722,5.722,0,0,1-.362,1.893,3.988,3.988,0,0,1-2.281,2.281,5.726,5.726,0,0,1-1.893.362c-.832.038-1.1.047-3.215.047s-2.384-.009-3.215-.047a5.726,5.726,0,0,1-1.893-.362,3.988,3.988,0,0,1-2.281-2.281A5.72,5.72,0,0,1,5.83,16.8c-.038-.832-.047-1.1-.047-3.215s.009-2.384.047-3.215a5.722,5.722,0,0,1,.362-1.893A3.99,3.99,0,0,1,8.473,6.192a5.727,5.727,0,0,1,1.893-.362c.832-.038,1.1-.047,3.215-.047s2.384.009,3.215.047a5.728,5.728,0,0,1,1.893.362A3.989,3.989,0,0,1,20.97,8.473a5.721,5.721,0,0,1,.363,1.893c.038.832.047,1.1.047,3.215S21.371,15.965,21.333,16.8Zm0,0" fill="#40B2DF"/>
</svg>
