<svg id="solucion" xmlns="http://www.w3.org/2000/svg" width="64.879" height="64.885" viewBox="0 0 64.879 64.885">
  <g id="Grupo_3091" data-name="Grupo 3091" transform="translate(28.115 21.633)">
    <g id="Grupo_3090" data-name="Grupo 3090">
      <path id="Trazado_7727" data-name="Trazado 7727" d="M240.466,160.049H226.409a1.081,1.081,0,0,0-1.081,1.081v4.325a1.081,1.081,0,0,0,1.081,1.081h3.244a2.163,2.163,0,0,1,0,4.325h-3.244a1.081,1.081,0,0,0-1.081,1.081v5.406H209.108a1.081,1.081,0,0,0-1.081,1.081v14.057a4.325,4.325,0,0,0,4.325,4.325h28.114a4.325,4.325,0,0,0,4.325-4.325V164.374A4.325,4.325,0,0,0,240.466,160.049Zm-15.138,34.6H212.352a2.163,2.163,0,0,1-2.163-2.163V179.512h15.138v2.163h-2.163a4.325,4.325,0,1,0,0,8.65h2.163Zm17.3-2.163a2.163,2.163,0,0,1-2.163,2.163H227.49v-5.407a1.081,1.081,0,0,0-1.081-1.081h-3.244a2.163,2.163,0,0,1,0-4.325h3.244a1.081,1.081,0,0,0,1.081-1.081v-3.244h3.244v2.163a4.325,4.325,0,1,0,8.65,0v-2.163h3.244Zm0-15.138H238.3a1.081,1.081,0,0,0-1.081,1.081v3.244a2.163,2.163,0,0,1-4.325,0v-3.244a1.081,1.081,0,0,0-1.081-1.081H227.49v-4.325h2.163a4.325,4.325,0,1,0,0-8.65H227.49v-2.163h12.976a2.163,2.163,0,0,1,2.163,2.163Z" transform="translate(-208.027 -160.049)" fill="#40b2df"/>
    </g>
  </g>
  <g id="Grupo_3093" data-name="Grupo 3093" transform="translate(0 0)">
    <g id="Grupo_3092" data-name="Grupo 3092" transform="translate(0 0)">
      <path id="Trazado_7728" data-name="Trazado 7728" d="M47.6,4.332H45.437V1.088A1.081,1.081,0,0,0,44.355.007H30.3a4.325,4.325,0,0,0-4.325,4.325V16.443L21.5,18.605a8.812,8.812,0,0,0-2.461-2.219,8.65,8.65,0,1,0-8.314-.309,8.671,8.671,0,0,0-4.58,5.571L1.837,35.213a16.219,16.219,0,0,0,.7,11.638,14.028,14.028,0,0,1-.225,12.128L.136,63.32A1.081,1.081,0,0,0,1.1,64.885H13A1.081,1.081,0,0,0,14.079,63.8a5.376,5.376,0,0,0-2.891-4.776L11.7,58a16.344,16.344,0,0,0,1.452-10.173l-.8-4.412a1.047,1.047,0,0,1,2.061-.375l1.468,8.079a22.285,22.285,0,0,1,.358,3.977V63.8a1.081,1.081,0,0,0,1.081,1.081H29.217A1.081,1.081,0,0,0,30.3,63.8a5.409,5.409,0,0,0-.037-.629A4.788,4.788,0,0,0,27.6,59.411a5.24,5.24,0,0,0-3.9-.346l.72-3.6a24.461,24.461,0,0,0,.474-4.785V41l-1.263-14.48,7.5-3.58a4.041,4.041,0,0,0,2.393-3.473h10.83a1.081,1.081,0,0,0,1.081-1.081V12.982H47.6a4.325,4.325,0,0,0,0-8.65ZM8.673,8.657a6.488,6.488,0,1,1,6.488,6.488A6.488,6.488,0,0,1,8.673,8.657ZM23.7,61.405a3.077,3.077,0,0,1,2.92-.064,2.716,2.716,0,0,1,1.315,1.381H18.4v-7.63a24.41,24.41,0,0,0-.394-4.364L16.542,42.65a3.209,3.209,0,1,0-6.325,1.094c0,.018.006.036.01.055l.8,4.412A14.173,14.173,0,0,1,9.77,57.028l-1.05,2.1a1.081,1.081,0,0,0,.709,1.541,3.232,3.232,0,0,1,2.3,2.054H2.853l1.386-2.777a16.185,16.185,0,0,0,.26-13.99,14.057,14.057,0,0,1-.6-10.089L8.221,22.243a6.643,6.643,0,0,1,7.657-4.814A6.38,6.38,0,0,1,19.5,19.565l-6.39,3.087a4.013,4.013,0,1,0,3.471,7.236l4.974-2.371L22.73,41.1v9.586a22.378,22.378,0,0,1-.433,4.36L21.144,60.8a1.081,1.081,0,0,0,1.6,1.152Zm6.551-40.434-.032.014-14.57,6.952a1.851,1.851,0,0,1-1.6-3.337l14.687-7.093a1.89,1.89,0,0,1,2.649,1.732A1.892,1.892,0,0,1,30.248,20.971ZM47.6,10.82H44.355A1.081,1.081,0,0,0,43.274,11.9v5.406H33.055a4.041,4.041,0,0,0-4.919-1.879V4.332A2.163,2.163,0,0,1,30.3,2.169H43.274V5.413a1.081,1.081,0,0,0,1.081,1.081H47.6a2.163,2.163,0,1,1,0,4.325Z" transform="translate(-0.022 0)" fill="#40b2df"/>
    </g>
  </g>
  <g id="Grupo_3095" data-name="Grupo 3095" transform="translate(28.431 25.958)">
    <g id="Grupo_3094" data-name="Grupo 3094">
      <path id="Trazado_7729" data-name="Trazado 7729" d="M225.509,194.528l-3.561,3.561v-6.04h-2.163v8.2l-1.081,1.081-1.081-1.081v-3.878h-2.163v1.715l-3.561-3.561-1.529,1.529,7.569,7.569a1.081,1.081,0,0,0,1.529,0l7.569-7.569Z" transform="translate(-210.371 -192.049)" fill="#40b2df"/>
    </g>
  </g>
  <g id="Grupo_3097" data-name="Grupo 3097" transform="translate(33.521 25.958)">
    <g id="Grupo_3096" data-name="Grupo 3096">
      <rect id="Rectángulo_233" data-name="Rectángulo 233" width="2.163" height="2.163" fill="#40b2df"/>
    </g>
  </g>
  <g id="Grupo_3099" data-name="Grupo 3099" transform="translate(33.521 21.633)">
    <g id="Grupo_3098" data-name="Grupo 3098">
      <rect id="Rectángulo_234" data-name="Rectángulo 234" width="2.163" height="2.163" fill="#40b2df"/>
    </g>
  </g>
  <g id="Grupo_3101" data-name="Grupo 3101" transform="translate(37.846 21.633)">
    <g id="Grupo_3100" data-name="Grupo 3100">
      <rect id="Rectángulo_235" data-name="Rectángulo 235" width="2.163" height="2.163" fill="#40b2df"/>
    </g>
  </g>
</svg>
