<svg xmlns="http://www.w3.org/2000/svg" width="27.162" height="27.162" viewBox="0 0 27.162 27.162">
  <path id="linkedin" d="M13.581,0A13.581,13.581,0,1,0,27.162,13.581,13.583,13.583,0,0,0,13.581,0ZM9.635,20.531H6.327V10.58H9.635ZM7.981,9.221H7.959A1.724,1.724,0,1,1,8,5.783a1.725,1.725,0,1,1-.022,3.438Zm13.58,11.31H18.254V15.207c0-1.338-.479-2.25-1.676-2.25a1.811,1.811,0,0,0-1.7,1.21,2.265,2.265,0,0,0-.109.807v5.557H11.465s.043-9.018,0-9.951h3.307v1.409a3.284,3.284,0,0,1,2.981-1.643c2.176,0,3.808,1.422,3.808,4.479Zm0,0" fill="#fff"/>
</svg>
