<svg xmlns="http://www.w3.org/2000/svg" width="64.238" height="64.238" viewBox="0 0 64.238 64.238">
  <path id="Icon_feather-message-circle" data-name="Icon feather-message-circle" d="M62.738,32A27.113,27.113,0,0,1,59.826,44.3,27.5,27.5,0,0,1,35.237,59.5a27.113,27.113,0,0,1-12.295-2.912L4.5,62.738,10.647,44.3A27.113,27.113,0,0,1,7.735,32,27.5,27.5,0,0,1,22.942,7.412,27.113,27.113,0,0,1,35.237,4.5h1.618A27.437,27.437,0,0,1,62.738,30.384Z" transform="translate(-1.5 -1.5)" fill="none" stroke="#fff" stroke-linecap="round" stroke-linejoin="round" stroke-width="6"/>
</svg>
