<svg xmlns="http://www.w3.org/2000/svg" width="63.233" height="63.233" viewBox="0 0 63.233 63.233">
  <path id="objetivo" d="M32.7,2.176A30.49,30.49,0,0,0,18.688,5.589L13.642.543a1.855,1.855,0,0,0-3.05.664L8.044,8.044,1.207,10.592a1.855,1.855,0,0,0-.664,3.05L5.59,18.688A30.525,30.525,0,1,0,32.7,2.176Zm0,40.576a10.047,10.047,0,1,0-5.667-18.338l-4.664-4.664a16.6,16.6,0,1,1-2.623,2.623l4.664,4.664A10.041,10.041,0,0,0,32.7,42.751Zm1.312-11.359-4.284-4.284a6.343,6.343,0,1,1-2.623,2.623l4.284,4.284a1.855,1.855,0,0,0,2.623-2.623ZM13.06,5.208,19.3,11.45l-.8,4.426L11.641,9.017ZM5.208,13.06l3.809-1.42L15.877,18.5l-4.427.8ZM32.7,59.522A26.81,26.81,0,0,1,8.362,21.46l1.152,1.152a1.855,1.855,0,0,0,1.642.514l4.088-.741a20.3,20.3,0,1,0,7.141-7.141l.741-4.088a1.855,1.855,0,0,0-.514-1.642L21.461,8.361A26.817,26.817,0,1,1,32.7,59.522Z" transform="translate(0 0)" fill="#146db8"/>
</svg>
