<svg xmlns="http://www.w3.org/2000/svg" width="23.936" height="23.936" viewBox="0 0 23.936 23.936">
  <g id="Grupo_378" data-name="Grupo 378" transform="translate(-1621.275 -34.985)">
    <circle id="Elipse_63" data-name="Elipse 63" cx="11.968" cy="11.968" r="11.968" transform="translate(1621.275 34.985)" fill="#40b2df"/>
    <path id="Icon_awesome-phone-alt" data-name="Icon awesome-phone-alt" d="M11.627,8.457,9.009,7.335a.561.561,0,0,0-.655.161L7.195,8.913A8.664,8.664,0,0,1,3.053,4.771L4.469,3.612a.56.56,0,0,0,.161-.655L3.509.339A.565.565,0,0,0,2.866.015L.435.576A.561.561,0,0,0,0,1.122,10.845,10.845,0,0,0,10.846,11.968a.561.561,0,0,0,.547-.435L11.954,9.1a.568.568,0,0,0-.327-.645Z" transform="translate(1627.259 40.969)" fill="#fffcfc"/>
  </g>
</svg>
