<svg xmlns="http://www.w3.org/2000/svg" width="47.979" height="77.731" viewBox="0 0 47.979 77.731">
  <g id="mision" transform="translate(-12.492 -0.395)">
    <path id="Trazado_7865" data-name="Trazado 7865" d="M59.058,50.975A29.839,29.839,0,0,0,47.605,31.286v-5.34A34.383,34.383,0,0,0,37.47,1.476l-.114-.114a1.235,1.235,0,0,0-1.748,0l-.114.114a34.38,34.38,0,0,0-10.136,24.47v5.34A29.839,29.839,0,0,0,13.906,50.975l-.895,6.713a1.237,1.237,0,0,0,.829,1.335,1.261,1.261,0,0,0,.4.064,1.235,1.235,0,0,0,1.073-.623l1.264-2.214a11.564,11.564,0,0,1,8.786-5.733v1.154a1.236,1.236,0,0,0,1.236,1.236h1.236v3.708a1.236,1.236,0,0,0,1.236,1.236h6.18V62.8h2.472V57.852H43.9a1.236,1.236,0,0,0,1.236-1.236V52.908h1.236a1.236,1.236,0,0,0,1.236-1.236V50.519a11.561,11.561,0,0,1,8.786,5.733l1.264,2.214a1.236,1.236,0,0,0,2.3-.779ZM36.482,4.009a32.039,32.039,0,0,1,6.093,9.35H30.389a32.039,32.039,0,0,1,6.093-9.35ZM16.182,52.6l.173-1.3a27.35,27.35,0,0,1,9-16.8V48.03a14.065,14.065,0,0,0-9.177,4.57Zm26.479,2.78H30.3V52.908H42.662Zm2.472-4.944h-17.3V25.946a32.2,32.2,0,0,1,1.623-10.115H43.512a32.231,32.231,0,0,1,1.622,10.115Zm2.472-2.405V34.5a27.362,27.362,0,0,1,9,16.8l.173,1.3A14.058,14.058,0,0,0,47.605,48.031Z" transform="translate(0 0)" fill="#146db8" stroke="#146db8" stroke-width="1"/>
    <path id="Trazado_7866" data-name="Trazado 7866" d="M33.415,19a7.415,7.415,0,1,0,7.415,7.415A7.423,7.423,0,0,0,33.415,19Zm0,12.359a4.944,4.944,0,1,1,4.944-4.944A4.949,4.949,0,0,1,33.415,31.359Z" transform="translate(3.067 4.246)" fill="#146db8" stroke="#146db8" stroke-width="1"/>
    <path id="Trazado_7867" data-name="Trazado 7867" d="M39.623,48.445l-2.057,1.371,1.314,1.971a5.66,5.66,0,0,1-.707,7.141L33.651,63.45l-4.522-4.522a5.66,5.66,0,0,1-.707-7.141l1.314-1.971-2.057-1.371-1.314,1.971a8.13,8.13,0,0,0,1.016,10.259l5.4,5.4a1.235,1.235,0,0,0,1.748,0l5.4-5.4a8.13,8.13,0,0,0,1.016-10.259Z" transform="translate(2.831 11.193)" fill="#146db8" stroke="#146db8" stroke-width="1"/>
  </g>
</svg>
