<svg xmlns="http://www.w3.org/2000/svg" width="63.233" height="63.233" viewBox="0 0 63.233 63.233">
  <g id="valor" transform="translate(0)">
    <path id="Trazado_7863" data-name="Trazado 7863" d="M152.674,27.417h19.521a3.422,3.422,0,0,0,3.32-4.25l-1.458-5.846a8.115,8.115,0,0,0-5.432-5.784,7.432,7.432,0,1,0-12.382,0,8.115,8.115,0,0,0-5.432,5.784l-1.458,5.846a3.421,3.421,0,0,0,3.32,4.249Zm9.76-23.712a3.727,3.727,0,1,1-3.727,3.727,3.731,3.731,0,0,1,3.727-3.727Zm-8.028,14.513a4.417,4.417,0,0,1,4.293-3.354h7.47a4.417,4.417,0,0,1,4.293,3.354l1.37,5.495h-18.8Z" transform="translate(-130.818)" fill="#146db8"/>
    <path id="Trazado_7864" data-name="Trazado 7864" d="M63.186,112.168a5.649,5.649,0,0,0-11.3.013v9q-.175-.011-.351-.011a5.44,5.44,0,0,0-3.872,1.6l-4.856,4.856a.219.219,0,0,1-.179.062l-.1-.009-2.178-.13a5.963,5.963,0,0,0-4.868,1.722l-3,3a9.392,9.392,0,0,0-.86.991,9.394,9.394,0,0,0-.86-.991l-3-3a5.962,5.962,0,0,0-4.868-1.722l-2.178.13-.1.009a.218.218,0,0,1-.179-.062l-4.856-4.856a5.44,5.44,0,0,0-3.872-1.6q-.177,0-.351.011v-9a5.649,5.649,0,0,0-11.3-.013L0,132.587a8.119,8.119,0,0,0,2.362,5.721L14.2,150.148v3.371a3.091,3.091,0,0,0,3.088,3.088H30.381a3.069,3.069,0,0,0,1.235-.259,3.069,3.069,0,0,0,1.235.259H45.943a3.091,3.091,0,0,0,3.088-3.088v-3.371l11.841-11.841a8.119,8.119,0,0,0,2.362-5.721Zm-4.935,23.52L45.868,148.071a1.853,1.853,0,0,0-.543,1.31V152.9H33.469V138.831A5.521,5.521,0,0,1,35.1,134.9l3-3a2.275,2.275,0,0,1,1.88-.655c.034,0,.067.007.1.009l2.182.13a3.9,3.9,0,0,0,3.164-1.13l4.856-4.856a1.771,1.771,0,0,1,2.5,2.5l-6.921,6.921a1.853,1.853,0,0,0,2.62,2.62l6.921-6.921a5.476,5.476,0,0,0,.185-7.551V112.181a1.944,1.944,0,0,1,2.2-1.928,1.95,1.95,0,0,1,1.693,1.924l.046,20.419A4.389,4.389,0,0,1,58.251,135.688Zm-53.269,0A4.389,4.389,0,0,1,3.705,132.6l.047-20.419a1.95,1.95,0,0,1,1.693-1.924,1.944,1.944,0,0,1,2.2,1.928v10.788a5.476,5.476,0,0,0,.185,7.551l6.921,6.921a1.853,1.853,0,0,0,2.62-2.62l-6.921-6.92a1.771,1.771,0,1,1,2.5-2.5l4.857,4.857a3.9,3.9,0,0,0,3.164,1.13l2.182-.13.1-.009a2.278,2.278,0,0,1,1.88.655l3,3a5.521,5.521,0,0,1,1.628,3.93V152.9H17.908v-3.521a1.852,1.852,0,0,0-.543-1.31Z" transform="translate(0 -93.374)" fill="#146db8"/>
  </g>
</svg>
