<svg xmlns="http://www.w3.org/2000/svg" width="73.979" height="62.925" viewBox="0 0 73.979 62.925">
  <g id="camara-de-seguridad" transform="translate(0 -9.567)">
    <path id="Trazado_7859" data-name="Trazado 7859" d="M73.474,36.346,28.393,10.319a5.642,5.642,0,0,0-7.7,2.062l-5.19,8.989-3.455,5.984a5.643,5.643,0,0,0,2.063,7.7l15.457,8.923-2.4,4.1a3.627,3.627,0,0,1-3.116,1.785H15.027V42.981a1.011,1.011,0,0,0-1.011-1.011H8.525V40.665a4.484,4.484,0,0,0-4.479-4.479H1.011A1.011,1.011,0,0,0,0,37.2V71.48a1.011,1.011,0,0,0,1.011,1.011H4.046a4.484,4.484,0,0,0,4.479-4.479V64.8h5.491a1.011,1.011,0,0,0,1.011-1.011V58.818h9.024A12.619,12.619,0,0,0,34.9,52.607l2.435-4.152L45.8,53.347a5.606,5.606,0,0,0,2.808.757,5.664,5.664,0,0,0,1.468-.194,5.6,5.6,0,0,0,2.448-1.381,8.426,8.426,0,0,0,3.537.783,8.561,8.561,0,0,0,2.217-.294A8.446,8.446,0,0,0,62.887,49.9l2.071,1.2a1.011,1.011,0,0,0,1.382-.37l7.5-12.993a1.012,1.012,0,0,0-.368-1.383ZM6.5,68.012a2.459,2.459,0,0,1-2.456,2.456H2.023V38.208H4.046A2.459,2.459,0,0,1,6.5,40.665ZM13,62.777H8.525V43.993H13ZM33.15,51.584a10.587,10.587,0,0,1-9.1,5.212H15.027V51.883h9.024A5.657,5.657,0,0,0,28.913,49.1l2.413-4.11,4.255,2.456Zm13.665.011L15.126,33.3A3.616,3.616,0,0,1,13.8,28.365l2.948-5.107L45.793,40.024l8.9,5.14-2.948,5.11,0,.006a3.568,3.568,0,0,1-.255.376v0A3.616,3.616,0,0,1,46.815,51.595Zm10.945-.531a6.447,6.447,0,0,1-4.009-.211l2.7-4.677,4.677,2.7a6.447,6.447,0,0,1-3.37,2.188ZM65.1,48.833l-6.541-3.776-1.974-1.139L34.252,31.025,17.764,21.506l4.684-8.113a3.616,3.616,0,0,1,4.935-1.321l44.2,25.521Z" transform="translate(0 0)" fill="#fff"/>
    <path id="Trazado_7860" data-name="Trazado 7860" d="M103.734,62.693a3.866,3.866,0,0,0,1.939.523,3.893,3.893,0,1,0-1.939-.523Zm.329-4.3a1.856,1.856,0,0,1,1.133-.867,1.868,1.868,0,1,1-1.133.87Z" transform="translate(-42.959 -19.358)" fill="#fff"/>
    <path id="Trazado_7861" data-name="Trazado 7861" d="M38.34,46.676,30.052,41.89a1.011,1.011,0,1,0-1.011,1.752l8.29,4.786a1.011,1.011,0,0,0,1.009-1.751Z" transform="translate(-12.043 -13.584)" fill="#fff"/>
  </g>
</svg>
