<svg xmlns="http://www.w3.org/2000/svg" width="68.85" height="59.674" viewBox="0 0 68.85 59.674">
  <g id="tiempo-infinito" transform="translate(0 -32.521)">
    <g id="Layer_2_21_" transform="translate(0 32.521)">
      <g id="Grupo_3206" data-name="Grupo 3206">
        <path id="Trazado_7868" data-name="Trazado 7868" d="M57.684,57.133l3.08-7.576c.345-.85-.087-1.316-.96-1.038L56.74,49.5A29.819,29.819,0,0,0,17.184,35.354,29.849,29.849,0,0,0,.655,68.552,30.049,30.049,0,0,0,2.833,75.01,29.82,29.82,0,0,0,42.49,89.362a19.972,19.972,0,0,0,2.961-1.6c1.216-.845,2.5-1.595,1.24-3.434-1.272-1.861-3.791-.462-6.235.689A25.024,25.024,0,0,1,7.176,72.976a25.25,25.25,0,0,1-1.828-5.419A25.026,25.026,0,0,1,52.114,50.97l-3.177,1.014c-.873.278-.956.909-.183,1.4l6.9,4.4A1.343,1.343,0,0,0,57.684,57.133Z" transform="translate(0 -32.521)" fill="#146db8"/>
        <path id="Trazado_7869" data-name="Trazado 7869" d="M124.864,109.122v17.242l-11.7,9.538a1.941,1.941,0,1,0,2.454,3.009l13.127-10.7V109.122a1.942,1.942,0,1,0-3.883,0Z" transform="translate(-96.587 -96.647)" fill="#146db8"/>
        <path id="Trazado_7870" data-name="Trazado 7870" d="M288.413,253.705a7.709,7.709,0,0,0-5.468,2.244l-2.512,2.412-2.475-2.375a7.778,7.778,0,1,0-.034,11.029l2.511-2.409,2.478,2.376a7.777,7.777,0,1,0,5.5-13.276ZM274.772,263.8a3.351,3.351,0,0,1-4.63,0,3.277,3.277,0,0,1,2.314-5.591,3.294,3.294,0,0,1,2.35.991l2.378,2.288Zm15.954,0a3.331,3.331,0,0,1-4.664-.032l-2.379-2.287,2.412-2.313a3.352,3.352,0,0,1,4.631,0,3.28,3.28,0,0,1,0,4.636Z" transform="translate(-227.339 -222.5)" fill="#146db8"/>
      </g>
    </g>
  </g>
</svg>
