<svg xmlns="http://www.w3.org/2000/svg" width="27.44" height="27.44" viewBox="0 0 27.44 27.44">
  <path id="Icon_simple-whatsapp" data-name="Icon simple-whatsapp" d="M20.006,16.443c-.344-.171-2.02-.991-2.332-1.1s-.541-.172-.769.172-.882,1.1-1.079,1.329-.4.24-.739.086a9.279,9.279,0,0,1-2.747-1.7,10.373,10.373,0,0,1-1.9-2.367c-.2-.343-.022-.532.149-.7.155-.154.344-.394.516-.6a2.9,2.9,0,0,0,.34-.567.628.628,0,0,0-.029-.6c-.086-.172-.768-1.852-1.054-2.522s-.557-.583-.768-.583c-.2-.017-.424-.017-.653-.017a1.289,1.289,0,0,0-.911.41,3.817,3.817,0,0,0-1.195,2.83,6.69,6.69,0,0,0,1.394,3.516,15.245,15.245,0,0,0,5.831,5.128c.816.343,1.452.549,1.948.719a4.73,4.73,0,0,0,2.149.138,3.519,3.519,0,0,0,2.3-1.63,2.83,2.83,0,0,0,.206-1.629c-.085-.154-.309-.24-.652-.394m-6.227,8.51h-.018a11.437,11.437,0,0,1-5.78-1.578l-.412-.245L3.293,24.16l1.149-4.167-.273-.429A11.34,11.34,0,0,1,21.83,5.575a11.191,11.191,0,0,1,3.326,7.992A11.354,11.354,0,0,1,13.8,24.869M23.461,3.943A13.882,13.882,0,0,0,13.771,0,13.594,13.594,0,0,0,1.939,20.395L0,27.44l7.243-1.889a13.791,13.791,0,0,0,6.528,1.654h.007A13.652,13.652,0,0,0,27.44,13.6a13.485,13.485,0,0,0-4-9.617" fill="#fff"/>
</svg>
